<svg width="20" height="21" viewBox="0 0 20 21" fill="none" xmlns="http://www.w3.org/2000/svg">
<path fill-rule="evenodd" clip-rule="evenodd" d="M7.10366 2.67663C7.35172 2.68333 7.43888 2.70007 7.59978 2.77709C7.7037 2.82733 7.86796 2.93783 7.96182 3.02825C8.05568 3.11532 8.1663 3.26266 8.21323 3.35308C8.25681 3.44684 8.30709 3.60088 8.3272 3.698C8.35402 3.83195 8.33726 4.23379 8.26016 5.40585C8.20653 6.24639 8.12943 7.41175 8.0892 7.99108C8.05233 8.57041 8.0121 9.08276 8.00539 9.12965C7.99199 9.20332 7.77745 9.00239 6.02091 7.24766C4.93816 6.16602 4.03307 5.2786 4.01296 5.2786C3.9895 5.2786 3.96938 5.26855 3.96938 5.25181C3.96938 5.23842 4.49232 4.70262 5.13259 4.05966C5.82984 3.36312 6.35278 2.86751 6.43323 2.82398C6.50698 2.78714 6.62095 2.73691 6.68464 2.71347C6.75839 2.68333 6.91594 2.66993 7.10366 2.67663ZM11.3944 4.82317C11.6425 4.83657 11.733 4.85666 11.8973 4.93703C12.0213 4.99731 12.1621 5.10781 12.2626 5.21497C12.3498 5.31544 12.4738 5.50297 12.5342 5.63022C12.5945 5.75747 12.7118 6.06555 12.9364 6.75204L11.9576 7.72987C11.076 8.61059 10.9754 8.7211 10.9754 8.82156C10.9754 8.89524 11.0056 8.95886 11.076 9.02918C11.1397 9.09281 11.2101 9.12965 11.2704 9.12965C11.3442 9.12965 11.5185 8.97226 13.1175 7.37156L13.1811 7.52225C13.2147 7.60597 13.3622 8.01117 13.7644 9.17988L13.1443 9.79939C12.8023 10.141 12.504 10.4591 12.4839 10.5127C12.4604 10.5796 12.4604 10.6332 12.4906 10.7103C12.5208 10.7772 12.5744 10.8308 12.6414 10.8609C12.7219 10.8911 12.7755 10.8944 12.8359 10.871C12.8828 10.8509 13.1543 10.6031 13.4393 10.3184C13.7242 10.0338 13.9723 9.79939 13.9924 9.79939C14.0125 9.79939 14.0359 9.83288 14.046 9.87641C14.0594 9.9166 14.1734 10.1778 14.3041 10.4524C14.4349 10.7303 14.646 11.1422 14.7768 11.3733C14.9042 11.6044 15.112 11.956 15.2427 12.1603C15.3701 12.3645 15.6014 12.7027 15.7523 12.9137C15.9065 13.1247 16.1646 13.4629 16.3322 13.6672C16.4998 13.8715 16.6272 14.0456 16.6205 14.0623C16.6138 14.0757 15.8662 14.0858 13.3219 14.0858L13.0638 13.9987C12.9197 13.9518 12.7353 13.8715 12.6515 13.8179C12.5677 13.7643 11.609 12.83 8.54509 9.76591L8.65572 8.13507C8.71605 7.23426 8.77304 6.40378 8.80321 6.06555L9.07809 6.07895C9.22558 6.08565 9.42671 6.0756 9.51722 6.05216C9.61108 6.03207 9.74517 5.97514 9.81892 5.92156C9.90272 5.86128 9.99658 5.74742 10.0703 5.61013C10.134 5.49292 10.2379 5.33888 10.305 5.26521C10.3687 5.19488 10.4894 5.09107 10.5732 5.03414C10.657 4.97721 10.8078 4.90354 10.9084 4.87005C11.0492 4.82317 11.1631 4.81313 11.3944 4.82317V4.82317ZM3.55707 5.74742C3.6811 5.74742 3.77831 5.84119 7.89142 9.94674C10.2044 12.254 12.1755 14.1929 12.266 14.2566C12.3599 14.3168 12.5241 14.4073 12.6347 14.4608C12.7454 14.5111 12.9264 14.578 13.037 14.6115C13.2147 14.6618 13.4828 14.6718 17.4954 14.7053L17.6563 14.7991C17.7535 14.856 17.8507 14.9498 17.9144 15.0502C17.9714 15.1373 18.0317 15.2913 18.0518 15.3918C18.0753 15.5023 18.082 15.7099 18.0686 15.9108C18.0585 16.095 18.0217 16.3294 17.9882 16.4299C17.9513 16.5304 17.8909 16.681 17.8474 16.7648C17.8038 16.8485 17.6865 16.9992 17.5825 17.0996C17.4786 17.2001 17.3177 17.324 17.2272 17.3742C17.1334 17.4245 16.9691 17.4881 16.8585 17.5149C16.6875 17.5618 16.3523 17.5685 14.5053 17.5685C12.8023 17.5685 12.2995 17.5584 12.1084 17.5216C11.9744 17.4948 11.7498 17.4312 11.6123 17.3776C11.4749 17.3274 11.2402 17.2101 11.0927 17.1197C10.8547 16.9757 10.3217 16.4533 6.45669 12.5989C3.23191 9.3808 2.07206 8.20205 2.01507 8.09154C1.96814 7.99443 1.93797 7.85713 1.92791 7.70643C1.91786 7.50886 1.92791 7.44188 1.99831 7.28784C2.06535 7.1405 2.2162 6.96971 2.7559 6.42722C3.39616 5.78091 3.43639 5.74742 3.55707 5.74742V5.74742ZM2.08882 14.6885H4.36159C6.59413 14.6885 6.63436 14.6885 6.71146 14.7555C6.75168 14.7924 6.79526 14.856 6.80532 14.8995C6.81538 14.9397 6.80532 15.0167 6.78185 15.0737C6.75504 15.1272 6.69805 15.1909 6.65112 15.2143C6.58743 15.2478 6.07119 15.2578 4.36494 15.2578C2.75255 15.2578 2.1391 15.2478 2.08546 15.2176C2.04189 15.1976 1.9916 15.1574 1.96814 15.1272C1.94467 15.0971 1.92791 15.0234 1.92791 14.9631C1.92791 14.8928 1.95473 14.8225 2.00836 14.7723L2.08882 14.6885ZM2.08882 16.9992H10.0368L10.2882 17.2336C10.4257 17.3608 10.553 17.468 10.5732 17.468C10.5899 17.468 10.6067 17.4881 10.6067 17.5182C10.6067 17.5618 10.1106 17.5685 2.09217 17.5685L2.00836 17.4847C1.94803 17.4245 1.92456 17.3642 1.92456 17.2805C1.9268 17.2023 1.95473 17.1354 2.00836 17.0795L2.08882 16.9992Z" fill="#007AFF"/>
</svg>
