<svg width="25" height="25" viewBox="0 0 25 25" fill="none" xmlns="http://www.w3.org/2000/svg">
<path fill-rule="evenodd" clip-rule="evenodd" d="M8.99942 3.02341C10.1726 2.52086 11.4301 2.26221 12.7 2.26221C18.0185 2.26221 22.37 6.73221 22.37 12.2622C22.37 14.9144 21.3512 17.4579 19.5377 19.3333C17.7243 21.2086 15.2646 22.2622 12.7 22.2622C11.4301 22.2622 10.1726 22.0035 8.99942 21.501C7.8262 20.9985 6.76018 20.2619 5.86223 19.3333C4.04874 17.4579 3.02994 14.9144 3.02994 12.2622C3.02994 9.61004 4.04874 7.0665 5.86223 5.19114C6.76018 4.26255 7.8262 3.52596 8.99942 3.02341ZM7.40078 6.77227V17.7524H9.19607V10.5671L11.6606 17.7524H13.719L16.1835 10.567V17.7524H17.9788V6.77227H15.5865L12.6898 15.218L9.79293 6.77227H7.40078Z" fill="#5783B3"/>
</svg>
