<svg width="25" height="25" viewBox="0 0 25 25" fill="none" xmlns="http://www.w3.org/2000/svg">
<path d="M15.97 11.5122L15.07 12.4322C14.35 13.1522 13.9 13.7622 13.9 15.2622H11.9V14.7622C11.9 13.6522 12.35 12.6522 13.07 11.9322L14.31 10.6722C14.68 10.3122 14.9 9.81221 14.9 9.26221C14.9 8.15221 14 7.26221 12.9 7.26221C12.3696 7.26221 11.8609 7.47292 11.4858 7.84799C11.1107 8.22307 10.9 8.73177 10.9 9.26221H8.89999C8.89999 8.20134 9.32142 7.18393 10.0716 6.43378C10.8217 5.68363 11.8391 5.26221 12.9 5.26221C13.9609 5.26221 14.9783 5.68363 15.7284 6.43378C16.4786 7.18393 16.9 8.20134 16.9 9.26221C16.9 10.1422 16.54 10.9322 15.97 11.5122ZM13.9 19.2622H11.9V17.2622H13.9V19.2622ZM12.9 2.26221C11.5868 2.26221 10.2864 2.52086 9.07316 3.02341C7.8599 3.52596 6.75751 4.26255 5.82893 5.19114C3.95356 7.0665 2.89999 9.61004 2.89999 12.2622C2.89999 14.9144 3.95356 17.4579 5.82893 19.3333C6.75751 20.2619 7.8599 20.9985 9.07316 21.501C10.2864 22.0036 11.5868 22.2622 12.9 22.2622C15.5522 22.2622 18.0957 21.2086 19.9711 19.3333C21.8464 17.4579 22.9 14.9144 22.9 12.2622C22.9 6.73221 18.4 2.26221 12.9 2.26221Z" fill="#5783B3"/>
</svg>
