<svg width="101" height="101" viewBox="0 0 101 101" fill="none" xmlns="http://www.w3.org/2000/svg">
<path fill-rule="evenodd" clip-rule="evenodd" d="M29.3458 56.4948C29.1604 56.3901 28.9358 56.2617 28.6758 56.1107C27.9019 55.661 26.8114 55.0082 25.5094 54.1762C22.9159 52.5188 19.4312 50.1174 15.9206 47.161C12.4322 44.2232 8.77114 40.6151 5.94777 36.517C3.13914 32.4403 0.917297 27.523 0.917297 22.0805C0.917297 17.5216 2.13118 13.7005 4.74897 10.9518C7.32527 8.24676 10.5873 7.29212 13.2587 7.03142C14.7593 6.88498 16.2099 6.94106 17.4975 7.08557C18.852 3.01444 22.7337 0.121704 27.2152 0.121704H74.6194C79.1009 0.121704 82.9827 3.01445 84.3371 7.08557C85.6247 6.94107 87.0753 6.88498 88.5759 7.03142C91.2473 7.29212 94.5093 8.24676 97.0856 10.9518C99.7034 13.7005 100.917 17.5216 100.917 22.0805C100.917 27.523 98.6955 32.4403 95.8868 36.517C93.0634 40.6151 89.4024 44.2232 85.9139 47.161C82.4034 50.1174 78.9187 52.5188 76.3252 54.1762C75.0232 55.0082 73.9327 55.661 73.1588 56.1107C72.8988 56.2617 72.6742 56.3901 72.4888 56.4948C71.0387 59.1217 69.4063 61.5727 67.5651 63.7175C65.5091 66.1127 63.1092 68.2129 60.3532 69.718V73.4623H69.326C72.1873 73.4623 74.5069 75.7927 74.5069 78.6673V94.9168C74.5069 97.7914 72.1873 100.122 69.3259 100.122H32.5091C29.6477 100.122 27.3282 97.7914 27.3282 94.9168V78.6673C27.3282 75.7927 29.6477 73.4623 32.5091 73.4623H41.4818V69.7182C38.7256 68.2131 36.3256 66.1128 34.2695 63.7175C32.4283 61.5727 30.7959 59.1217 29.3458 56.4948ZM17.8969 17.6898C16.7455 17.4383 15.4255 17.2789 14.2605 17.3925C13.1012 17.5057 12.5325 17.837 12.2358 18.1485C11.9806 18.4165 11.2791 19.3427 11.2791 22.0805C11.2791 24.6514 12.345 27.5112 14.4679 30.5925C16.5474 33.611 19.4114 36.504 22.4517 39.0773C20.2501 31.4348 18.8096 23.7324 17.8969 17.6898ZM87.3667 30.5925C85.2872 33.611 82.4232 36.504 79.3829 39.0772C81.5845 31.4348 83.025 23.7324 83.9377 17.6898C85.0891 17.4383 86.4091 17.2789 87.5741 17.3925C88.7334 17.5057 89.3021 17.837 89.5988 18.1485C89.854 18.4165 90.5555 19.3427 90.5555 22.0805C90.5555 24.6514 89.4896 27.5112 87.3667 30.5925Z" fill="#CEE5FF"/>
</svg>
