<svg width="25" height="25" viewBox="0 0 25 25" fill="none" xmlns="http://www.w3.org/2000/svg">
<path fill-rule="evenodd" clip-rule="evenodd" d="M8.1857 13.5368C8.14862 13.5159 8.10369 13.4902 8.05169 13.46C7.8969 13.3701 7.67882 13.2395 7.41841 13.0731C6.8997 12.7416 6.20278 12.2613 5.50066 11.6701C4.80298 11.0825 4.07076 10.3609 3.50609 9.54126C2.94436 8.72592 2.49999 7.74246 2.49999 6.65398C2.49999 5.74219 2.74277 4.97797 3.26633 4.42824C3.78159 3.88722 4.43399 3.69629 4.96827 3.64415C5.26839 3.61486 5.55852 3.62608 5.81604 3.65498C6.08693 2.84075 6.86327 2.26221 7.75957 2.26221H17.2404C18.1367 2.26221 18.9131 2.84076 19.184 3.65498C19.4415 3.62608 19.7316 3.61486 20.0317 3.64415C20.566 3.69629 21.2184 3.88722 21.7337 4.42824C22.2572 4.97797 22.5 5.74219 22.5 6.65398C22.5 7.74246 22.0556 8.72592 21.4939 9.54126C20.9292 10.3609 20.197 11.0825 19.4993 11.6701C18.7972 12.2613 18.1003 12.7416 17.5816 13.0731C17.3212 13.2395 17.1031 13.3701 16.9483 13.46C16.8963 13.4902 16.8514 13.5159 16.8143 13.5368C16.5243 14.0622 16.1978 14.5524 15.8296 14.9814C15.4183 15.4604 14.9384 15.8804 14.3872 16.1815V16.9303H16.1817C16.754 16.9303 17.2179 17.3964 17.2179 17.9713V21.2212C17.2179 21.7961 16.754 22.2622 16.1817 22.2622H8.81835C8.24608 22.2622 7.78216 21.7961 7.78216 21.2212V17.9713C7.78216 17.3964 8.24608 16.9303 8.81835 16.9303H10.6129V16.1815C10.0617 15.8805 9.58166 15.4604 9.17043 14.9814C8.80219 14.5524 8.47572 14.0622 8.1857 13.5368ZM5.89592 5.77582C5.66563 5.72552 5.40163 5.69364 5.16863 5.71637C4.93677 5.739 4.82304 5.80526 4.76369 5.86757C4.71265 5.92117 4.57236 6.10641 4.57236 6.65397C4.57236 7.16816 4.78553 7.7401 5.2101 8.35638C5.62601 8.96007 6.19881 9.53867 6.80687 10.0533C6.36655 8.52483 6.07845 6.98434 5.89592 5.77582ZM19.7899 8.35638C19.374 8.96007 18.8012 9.53867 18.1931 10.0533C18.6334 8.52483 18.9215 6.98434 19.1041 5.77583C19.3344 5.72552 19.5984 5.69364 19.8314 5.71637C20.0632 5.739 20.1769 5.80526 20.2363 5.86757C20.2873 5.92117 20.4276 6.10641 20.4276 6.65397C20.4276 7.16816 20.2145 7.7401 19.7899 8.35638Z" fill="#5783B3"/>
</svg>
