<svg width="25" height="25" viewBox="0 0 25 25" fill="none" xmlns="http://www.w3.org/2000/svg">
<path fill-rule="evenodd" clip-rule="evenodd" d="M5.97902 4.88363C5.97902 4.06862 6.63972 3.40792 7.45473 3.40792H22.4416C23.2566 3.40792 23.9173 4.06862 23.9173 4.88363C23.9173 5.69864 23.2566 6.35934 22.4416 6.35934H7.45473C6.63972 6.35934 5.97902 5.69864 5.97902 4.88363Z" fill="#5783B3"/>
<path fill-rule="evenodd" clip-rule="evenodd" d="M5.97902 12.2622C5.97902 11.4472 6.63972 10.7865 7.45473 10.7865H22.4416C23.2566 10.7865 23.9173 11.4472 23.9173 12.2622C23.9173 13.0772 23.2566 13.7379 22.4416 13.7379H7.45473C6.63972 13.7379 5.97902 13.0772 5.97902 12.2622Z" fill="#5783B3"/>
<path fill-rule="evenodd" clip-rule="evenodd" d="M5.97902 19.6408C5.97902 18.8257 6.63972 18.165 7.45473 18.165H22.4416C23.2566 18.165 23.9173 18.8257 23.9173 19.6408C23.9173 20.4558 23.2566 21.1165 22.4416 21.1165H7.45473C6.63972 21.1165 5.97902 20.4558 5.97902 19.6408Z" fill="#5783B3"/>
<path fill-rule="evenodd" clip-rule="evenodd" d="M0.682655 4.88363C0.682655 3.98711 1.40942 3.26035 2.30594 3.26035H2.31851C3.21502 3.26035 3.94179 3.98711 3.94179 4.88363C3.94179 5.78014 3.21502 6.50691 2.31851 6.50691H2.30594C1.40942 6.50691 0.682655 5.78014 0.682655 4.88363Z" fill="#5783B3"/>
<path fill-rule="evenodd" clip-rule="evenodd" d="M0.682655 12.2622C0.682655 11.3657 1.40942 10.6389 2.30594 10.6389H2.31851C3.21502 10.6389 3.94179 11.3657 3.94179 12.2622C3.94179 13.1587 3.21502 13.8855 2.31851 13.8855H2.30594C1.40942 13.8855 0.682655 13.1587 0.682655 12.2622Z" fill="#5783B3"/>
<path fill-rule="evenodd" clip-rule="evenodd" d="M0.682655 19.6408C0.682655 18.7442 1.40942 18.0175 2.30594 18.0175H2.31851C3.21502 18.0175 3.94179 18.7442 3.94179 19.6408C3.94179 20.5373 3.21502 21.264 2.31851 21.264H2.30594C1.40942 21.264 0.682655 20.5373 0.682655 19.6408Z" fill="#5783B3"/>
</svg>
