<svg width="25" height="25" viewBox="0 0 25 25" fill="none" xmlns="http://www.w3.org/2000/svg">
<path d="M12.1 14.6372C8.92938 14.6372 2.60001 16.2166 2.60001 19.3872V21.7622H21.6V19.3872C21.6 16.2166 15.2706 14.6372 12.1 14.6372ZM12.1 12.2622C13.3598 12.2622 14.568 11.7618 15.4588 10.871C16.3496 9.98017 16.85 8.77199 16.85 7.51221C16.85 6.25243 16.3496 5.04425 15.4588 4.15345C14.568 3.26265 13.3598 2.76221 12.1 2.76221C10.8402 2.76221 9.63205 3.26265 8.74125 4.15345C7.85045 5.04425 7.35001 6.25243 7.35001 7.51221C7.35001 8.77199 7.85045 9.98017 8.74125 10.871C9.63205 11.7618 10.8402 12.2622 12.1 12.2622Z" fill="#007AFF"/>
</svg>
